<?xml version="1.0" encoding="utf-8"?>
<!-- Svg Vector Icons : http://www.onlinewebfonts.com/icon -->
<!DOCTYPE svg PUBLIC "-//W3C//DTD SVG 1.1//EN" "http://www.w3.org/Graphics/SVG/1.1/DTD/svg11.dtd">
<svg version="1.1" xmlns="http://www.w3.org/2000/svg" xmlns:xlink="http://www.w3.org/1999/xlink" x="0px" y="0px" viewBox="0 0 256 256" enable-background="new 0 0 256 256" xml:space="preserve">
<metadata> Svg Vector Icons : http://www.onlinewebfonts.com/icon </metadata>
<g><g><path fill="#000000" d="M127.9,157.9l-49.8-49.8c-1-1-2.3-1.6-3.8-1.6c-3,0-5.4,2.4-5.4,5.4c0,1.5,0.6,2.8,1.6,3.8l53.6,53.6c1,1,2.3,1.6,3.8,1.6c1.5,0,2.9-0.7,3.9-1.7l0,0l89.6-93.8l0,0l7.7-8c0,0,0,0,0,0l15.4-16.1l0,0c0.9-1,1.5-2.3,1.5-3.7c0-3-2.4-5.4-5.4-5.4c-1.5,0-2.9,0.6-3.9,1.7v0l-13.8,14.4c0,0,0,0,0,0l-7.5,7.9c0,0,0,0,0,0L127.9,157.9z M236.5,82.8c-2.1-2.1-5.5-2-7.6,0.1c-1.5,1.5-1.8,3.6-1.2,5.5l-0.1,0c4.9,12.3,7.7,25.6,7.7,39.6c0,59.2-48,107.3-107.3,107.3c-59.2,0-107.3-48.1-107.3-107.3c0-59.2,48-107.3,107.3-107.3c30.3,0,57.7,12.6,77.2,32.8l0.1-0.1c2.1,1.9,5.4,1.9,7.4-0.2c2.1-2.1,2-5.5-0.1-7.6c-0.2-0.2-0.5-0.3-0.7-0.4C190.5,23.6,160.9,10,128,10C62.8,10,10,62.8,10,128c0,65.2,52.8,118,118,118c65.2,0,118-52.8,118-118c0-15.2-3-29.6-8.2-42.9C237.6,84.2,237.2,83.4,236.5,82.8"/></g></g>
</svg>