<svg xmlns="http://www.w3.org/2000/svg" xmlns:xlink="http://www.w3.org/1999/xlink" width="512" zoomAndPan="magnify" viewBox="0 0 384 383.999986" height="512" preserveAspectRatio="xMidYMid meet" version="1.0"><path fill="#ffffff" d="M 314.1875 25.128906 C 302.167969 59.210938 299.605469 95.488281 297.453125 123.722656 C 297.292969 126.714844 297.144531 129.753906 297 132.808594 C 303.789062 142.195312 315.5625 157.332031 315.804688 157.003906 C 356.183594 142.363281 377.140625 117.425781 377.140625 117.425781 C 366.292969 92.203125 348.269531 63.804688 327.90625 39.484375 C 319.972656 29.988281 316.746094 26.050781 314.1875 25.128906 " fill-opacity="1" fill-rule="nonzero"/><path fill="#ffffff" d="M 69.832031 25.125 C 67.269531 26.046875 64.050781 29.984375 56.113281 39.480469 C 35.75 63.800781 17.726562 92.203125 6.878906 117.425781 C 6.878906 117.425781 27.835938 142.359375 68.214844 157.003906 C 68.460938 157.332031 80.230469 142.199219 87.019531 132.804688 C 86.875 129.75 86.730469 126.714844 86.566406 123.722656 C 84.414062 95.480469 81.851562 59.207031 69.832031 25.125 " fill-opacity="1" fill-rule="nonzero"/><path fill="#ffffff" d="M 312.976562 24.878906 C 299.21875 24.734375 262.207031 18.398438 248.445312 10.648438 C 248.382812 10.855469 248.320312 11.058594 248.261719 11.261719 C 248.078125 11.898438 247.871094 12.574219 247.625 13.335938 C 225.214844 66.734375 158.8125 66.753906 136.398438 13.335938 C 136.070312 12.328125 135.800781 11.46875 135.578125 10.648438 C 121.816406 18.398438 84.800781 24.734375 71.042969 24.878906 C 70.941406 24.878906 70.835938 24.898438 70.734375 24.898438 C 85.480469 58.550781 89.210938 95.320312 92.125 123.351562 C 100.101562 223.976562 88.125 322.902344 77.257812 357.863281 L 77.769531 358.027344 C 146.21875 370.90625 239.523438 370.578125 306.253906 358.027344 L 306.765625 357.863281 C 295.898438 322.902344 283.921875 223.976562 291.898438 123.351562 C 294.8125 95.320312 298.5625 58.550781 313.285156 24.898438 C 313.183594 24.898438 313.082031 24.878906 312.976562 24.878906 " fill-opacity="1" fill-rule="nonzero"/><path fill="#ffffff" d="M 246.066406 12.617188 C 246.496094 11.898438 246.886719 11.242188 247.195312 10.648438 L 247.214844 10.648438 C 247.234375 10.609375 247.253906 10.566406 247.273438 10.523438 C 247.234375 10.546875 247.175781 10.585938 247.128906 10.609375 C 216.886719 31.996094 170.972656 32.570312 139.863281 12.617188 C 138.859375 11.960938 137.855469 11.304688 136.886719 10.609375 C 136.847656 10.585938 136.785156 10.546875 136.746094 10.523438 C 137.09375 11.160156 137.503906 11.855469 137.957031 12.617188 C 166.871094 61.542969 218.507812 59.289062 246.066406 12.617188 " fill-opacity="1" fill-rule="nonzero"/><path fill="#1a1a19" d="M 315.808594 157.003906 C 315.5625 157.332031 303.789062 142.199219 297.003906 132.808594 C 297.148438 129.75 297.289062 126.71875 297.453125 123.722656 C 299.605469 95.484375 302.171875 59.207031 314.1875 25.125 C 316.75 26.046875 319.972656 29.988281 327.90625 39.480469 C 348.269531 63.800781 366.292969 92.203125 377.144531 117.425781 C 377.144531 117.425781 356.183594 142.363281 315.808594 157.003906 Z M 291.898438 123.351562 C 283.921875 223.976562 295.894531 322.902344 306.761719 357.863281 L 306.253906 358.027344 C 239.523438 370.578125 146.21875 370.90625 77.769531 358.027344 L 77.257812 357.863281 C 88.125 322.902344 100.101562 223.976562 92.125 123.351562 C 89.210938 95.320312 85.480469 58.550781 70.734375 24.902344 C 70.835938 24.902344 70.941406 24.882812 71.042969 24.882812 C 84.800781 24.738281 121.816406 18.398438 135.578125 10.648438 C 135.800781 11.472656 136.066406 12.332031 136.394531 13.335938 C 158.808594 66.757812 225.210938 66.734375 247.625 13.335938 C 247.867188 12.578125 248.078125 11.898438 248.261719 11.265625 C 248.320312 11.058594 248.382812 10.855469 248.441406 10.648438 C 262.203125 18.398438 299.21875 24.738281 312.976562 24.882812 C 313.082031 24.882812 313.179688 24.902344 313.285156 24.902344 C 298.5625 58.550781 294.808594 95.320312 291.898438 123.351562 Z M 68.210938 157.003906 C 27.835938 142.363281 6.878906 117.425781 6.878906 117.425781 C 17.726562 92.203125 35.75 63.800781 56.113281 39.480469 C 64.050781 29.988281 67.269531 26.046875 69.832031 25.125 C 81.847656 59.207031 84.414062 95.484375 86.566406 123.722656 C 86.730469 126.71875 86.875 129.75 87.015625 132.808594 C 80.230469 142.199219 68.460938 157.332031 68.210938 157.003906 Z M 136.886719 10.609375 C 137.851562 11.304688 138.855469 11.964844 139.863281 12.617188 C 170.96875 32.570312 216.886719 32 247.128906 10.609375 C 247.171875 10.589844 247.230469 10.546875 247.273438 10.527344 C 247.253906 10.570312 247.230469 10.609375 247.214844 10.648438 L 247.191406 10.648438 C 246.886719 11.246094 246.496094 11.898438 246.066406 12.617188 C 218.503906 59.292969 166.867188 61.546875 137.953125 12.617188 C 137.503906 11.859375 137.09375 11.164062 136.746094 10.527344 C 136.785156 10.546875 136.847656 10.589844 136.886719 10.609375 Z M 314.164062 22.890625 C 293.535156 19.078125 260.746094 12.023438 248.773438 9.195312 C 248.550781 9.144531 248.316406 9.109375 248.113281 9.007812 C 248.09375 9.007812 248.078125 9.027344 248.054688 9.027344 L 248.035156 9.027344 C 248.011719 9.027344 248.011719 9.050781 248.011719 9.050781 C 247.226562 9.492188 246.617188 9.746094 246.617188 9.746094 C 212.453125 26.253906 175.152344 26.871094 140.519531 11.203125 C 139.472656 10.730469 138.449219 10.238281 137.402344 9.746094 C 137.402344 9.746094 136.980469 9.59375 136.007812 9.050781 C 136.007812 9.050781 136.007812 9.027344 135.984375 9.027344 L 135.964844 9.027344 C 135.945312 9.027344 135.925781 9.007812 135.90625 9.007812 C 135.691406 9.117188 135.480469 9.140625 135.25 9.195312 C 123.273438 12.023438 90.480469 19.078125 69.851562 22.890625 C 63.332031 24.800781 59.109375 31.8125 53.835938 37.472656 C 19.429688 74.097656 0.0078125 118.699219 0.0078125 118.699219 C 12.496094 135.59375 44.382812 154.234375 68.972656 161.003906 C 69.011719 161.023438 69.074219 161.066406 69.113281 161.085938 C 70.179688 159.648438 80.988281 146.300781 87.222656 137.707031 C 90.402344 217.007812 85.253906 316.953125 76.355469 357.679688 C 76.210938 358.335938 76.066406 358.992188 75.921875 359.628906 C 76.085938 359.691406 76.496094 359.75 76.664062 359.8125 C 76.867188 359.875 77.050781 359.914062 77.152344 359.9375 C 77.257812 359.953125 77.339844 359.976562 77.441406 359.996094 C 137.914062 374.988281 246.105469 374.988281 306.578125 359.996094 C 306.683594 359.976562 306.761719 359.953125 306.867188 359.9375 C 306.96875 359.914062 307.152344 359.875 307.359375 359.8125 C 307.523438 359.75 307.933594 359.691406 308.097656 359.628906 C 307.953125 358.992188 307.808594 358.335938 307.667969 357.679688 C 298.769531 316.953125 293.617188 217.007812 296.796875 137.707031 C 303.03125 146.300781 313.835938 159.648438 314.90625 161.085938 C 314.945312 161.066406 315.007812 161.023438 315.046875 161.003906 C 339.632812 154.234375 371.523438 135.59375 384.011719 118.699219 C 384.011719 118.699219 364.59375 74.097656 330.179688 37.472656 C 324.914062 31.8125 320.691406 24.800781 314.164062 22.890625 " fill-opacity="1" fill-rule="nonzero"/></svg>