<svg xmlns="http://www.w3.org/2000/svg" xmlns:xlink="http://www.w3.org/1999/xlink" width="512" zoomAndPan="magnify" viewBox="0 0 384 383.999986" height="512" preserveAspectRatio="xMidYMid meet" version="1.0"><path fill="#1a1a19" d="M 341.53125 48.449219 L 377.421875 48.449219 C 377.8125 48.449219 378.203125 48.410156 378.585938 48.332031 C 378.972656 48.257812 379.347656 48.144531 379.710938 47.992188 C 380.074219 47.84375 380.417969 47.660156 380.742188 47.441406 C 381.070312 47.222656 381.371094 46.972656 381.648438 46.695312 C 381.925781 46.417969 382.175781 46.117188 382.394531 45.789062 C 382.613281 45.464844 382.796875 45.117188 382.945312 44.757812 C 383.097656 44.394531 383.210938 44.019531 383.285156 43.632812 C 383.363281 43.25 383.402344 42.859375 383.402344 42.46875 L 383.402344 6.578125 C 383.402344 6.1875 383.363281 5.796875 383.285156 5.414062 C 383.210938 5.027344 383.097656 4.652344 382.945312 4.289062 C 382.796875 3.925781 382.613281 3.582031 382.394531 3.257812 C 382.175781 2.929688 381.925781 2.628906 381.648438 2.351562 C 381.371094 2.074219 381.070312 1.824219 380.742188 1.605469 C 380.417969 1.386719 380.074219 1.203125 379.710938 1.054688 C 379.347656 0.902344 378.972656 0.789062 378.585938 0.714844 C 378.203125 0.636719 377.8125 0.597656 377.421875 0.597656 L 341.53125 0.597656 C 341.140625 0.597656 340.75 0.636719 340.367188 0.714844 C 339.980469 0.789062 339.605469 0.902344 339.242188 1.054688 C 338.882812 1.203125 338.535156 1.386719 338.210938 1.605469 C 337.882812 1.824219 337.582031 2.074219 337.304688 2.351562 C 337.027344 2.628906 336.777344 2.929688 336.558594 3.257812 C 336.339844 3.582031 336.15625 3.925781 336.007812 4.289062 C 335.855469 4.652344 335.742188 5.027344 335.667969 5.414062 C 335.589844 5.796875 335.550781 6.1875 335.550781 6.578125 L 335.550781 18.542969 L 215.925781 18.542969 L 215.925781 6.578125 C 215.925781 6.1875 215.886719 5.796875 215.808594 5.414062 C 215.734375 5.027344 215.621094 4.652344 215.46875 4.289062 C 215.320312 3.925781 215.136719 3.582031 214.917969 3.257812 C 214.699219 2.929688 214.449219 2.628906 214.171875 2.351562 C 213.894531 2.074219 213.59375 1.824219 213.265625 1.605469 C 212.941406 1.386719 212.59375 1.203125 212.234375 1.054688 C 211.871094 0.902344 211.496094 0.789062 211.109375 0.714844 C 210.726562 0.636719 210.335938 0.597656 209.945312 0.597656 L 174.054688 0.597656 C 173.664062 0.597656 173.273438 0.636719 172.890625 0.714844 C 172.503906 0.789062 172.128906 0.902344 171.765625 1.054688 C 171.402344 1.203125 171.058594 1.386719 170.734375 1.605469 C 170.40625 1.824219 170.105469 2.074219 169.828125 2.351562 C 169.550781 2.628906 169.300781 2.929688 169.082031 3.257812 C 168.863281 3.582031 168.679688 3.925781 168.53125 4.289062 C 168.378906 4.652344 168.265625 5.027344 168.191406 5.414062 C 168.113281 5.796875 168.074219 6.1875 168.074219 6.578125 L 168.074219 18.542969 L 48.449219 18.542969 L 48.449219 6.578125 C 48.449219 6.1875 48.410156 5.796875 48.332031 5.414062 C 48.257812 5.027344 48.144531 4.652344 47.992188 4.289062 C 47.84375 3.925781 47.660156 3.582031 47.441406 3.257812 C 47.222656 2.929688 46.972656 2.628906 46.695312 2.351562 C 46.417969 2.074219 46.117188 1.824219 45.789062 1.605469 C 45.464844 1.386719 45.117188 1.203125 44.757812 1.054688 C 44.394531 0.902344 44.019531 0.789062 43.632812 0.714844 C 43.25 0.636719 42.859375 0.597656 42.46875 0.597656 L 6.578125 0.597656 C 6.1875 0.597656 5.796875 0.636719 5.414062 0.714844 C 5.027344 0.789062 4.652344 0.902344 4.289062 1.054688 C 3.925781 1.203125 3.582031 1.386719 3.257812 1.605469 C 2.929688 1.824219 2.628906 2.074219 2.351562 2.351562 C 2.074219 2.628906 1.824219 2.929688 1.605469 3.257812 C 1.386719 3.582031 1.203125 3.925781 1.054688 4.289062 C 0.902344 4.652344 0.789062 5.027344 0.714844 5.414062 C 0.636719 5.796875 0.597656 6.1875 0.597656 6.578125 L 0.597656 42.46875 C 0.597656 42.859375 0.636719 43.25 0.714844 43.632812 C 0.789062 44.019531 0.902344 44.394531 1.054688 44.757812 C 1.203125 45.117188 1.386719 45.464844 1.605469 45.789062 C 1.824219 46.117188 2.074219 46.417969 2.351562 46.695312 C 2.628906 46.972656 2.929688 47.222656 3.257812 47.441406 C 3.582031 47.660156 3.925781 47.84375 4.289062 47.992188 C 4.652344 48.144531 5.027344 48.257812 5.414062 48.332031 C 5.796875 48.410156 6.1875 48.449219 6.578125 48.449219 L 42.46875 48.449219 C 42.859375 48.449219 43.25 48.410156 43.632812 48.332031 C 44.019531 48.257812 44.394531 48.144531 44.757812 47.992188 C 45.117188 47.84375 45.464844 47.660156 45.789062 47.441406 C 46.117188 47.222656 46.417969 46.972656 46.695312 46.695312 C 46.972656 46.417969 47.222656 46.117188 47.441406 45.789062 C 47.660156 45.464844 47.84375 45.117188 47.992188 44.757812 C 48.144531 44.394531 48.257812 44.019531 48.332031 43.632812 C 48.410156 43.25 48.449219 42.859375 48.449219 42.46875 L 48.449219 30.503906 L 128.957031 30.503906 C 125.390625 31.914062 121.871094 33.4375 118.402344 35.074219 C 114.9375 36.714844 111.527344 38.46875 108.175781 40.332031 C 104.824219 42.199219 101.535156 44.171875 98.3125 46.253906 C 95.09375 48.335938 91.945312 50.523438 88.867188 52.8125 C 85.789062 55.105469 82.792969 57.492188 79.871094 59.980469 C 76.953125 62.46875 74.121094 65.050781 71.371094 67.726562 C 68.621094 70.402344 65.964844 73.167969 63.398438 76.015625 C 60.832031 78.867188 58.363281 81.800781 55.992188 84.816406 C 53.617188 87.828125 51.347656 90.917969 49.179688 94.082031 C 47.011719 97.246094 44.949219 100.476562 42.992188 103.777344 C 41.039062 107.078125 39.195312 110.441406 37.460938 113.863281 C 35.730469 117.285156 34.113281 120.761719 32.609375 124.289062 C 31.105469 127.816406 29.71875 131.390625 28.453125 135.011719 C 27.183594 138.632812 26.039062 142.292969 25.011719 145.988281 C 23.988281 149.683594 23.085938 153.410156 22.304688 157.164062 C 21.527344 160.921875 20.871094 164.699219 20.339844 168.496094 C 19.867188 168.578125 19.394531 168.675781 18.921875 168.785156 C 18.453125 168.894531 17.988281 169.019531 17.523438 169.15625 C 17.0625 169.296875 16.605469 169.449219 16.152344 169.613281 C 15.699219 169.78125 15.25 169.957031 14.808594 170.152344 C 14.363281 170.34375 13.929688 170.550781 13.5 170.769531 C 13.070312 170.988281 12.644531 171.21875 12.230469 171.464844 C 11.8125 171.707031 11.40625 171.964844 11.003906 172.234375 C 10.605469 172.503906 10.210938 172.785156 9.828125 173.078125 C 9.445312 173.371094 9.070312 173.675781 8.703125 173.988281 C 8.339844 174.304688 7.984375 174.628906 7.636719 174.96875 C 7.292969 175.304688 6.957031 175.652344 6.632812 176.007812 C 6.304688 176.363281 5.992188 176.730469 5.691406 177.105469 C 5.386719 177.480469 5.09375 177.867188 4.816406 178.261719 C 4.535156 178.652344 4.269531 179.054688 4.011719 179.464844 C 3.757812 179.875 3.515625 180.289062 3.285156 180.714844 C 3.054688 181.136719 2.835938 181.570312 2.632812 182.003906 C 2.425781 182.441406 2.234375 182.886719 2.058594 183.335938 C 1.878906 183.78125 1.714844 184.238281 1.566406 184.695312 C 1.414062 185.152344 1.277344 185.617188 1.15625 186.082031 C 1.035156 186.550781 0.925781 187.019531 0.832031 187.492188 C 0.738281 187.964844 0.65625 188.441406 0.589844 188.921875 C 0.523438 189.398438 0.472656 189.878906 0.4375 190.359375 C 0.398438 190.839844 0.378906 191.324219 0.371094 191.804688 C 0.363281 192.289062 0.367188 192.769531 0.390625 193.253906 C 0.410156 193.734375 0.449219 194.214844 0.496094 194.695312 C 0.546875 195.175781 0.613281 195.652344 0.691406 196.128906 C 0.769531 196.605469 0.863281 197.078125 0.972656 197.550781 C 1.078125 198.019531 1.199219 198.488281 1.335938 198.949219 C 1.472656 199.414062 1.621094 199.871094 1.785156 200.324219 C 1.949219 200.78125 2.125 201.230469 2.316406 201.671875 C 2.503906 202.117188 2.707031 202.554688 2.925781 202.984375 C 3.140625 203.414062 3.371094 203.839844 3.613281 204.257812 C 3.855469 204.675781 4.109375 205.085938 4.375 205.488281 C 4.644531 205.886719 4.921875 206.28125 5.214844 206.667969 C 5.503906 207.054688 5.804688 207.429688 6.117188 207.796875 C 6.433594 208.164062 6.757812 208.519531 7.089844 208.867188 C 7.425781 209.214844 7.769531 209.554688 8.125 209.878906 C 8.480469 210.207031 8.84375 210.523438 9.21875 210.828125 C 9.59375 211.132812 9.976562 211.425781 10.367188 211.707031 C 10.757812 211.988281 11.160156 212.257812 11.566406 212.515625 C 11.976562 212.773438 12.390625 213.019531 12.8125 213.253906 C 13.238281 213.484375 13.664062 213.707031 14.101562 213.914062 C 14.539062 214.121094 14.980469 214.3125 15.425781 214.492188 C 15.875 214.671875 16.328125 214.839844 16.785156 214.992188 C 17.242188 215.144531 17.703125 215.285156 18.171875 215.410156 C 18.636719 215.535156 19.105469 215.648438 19.578125 215.742188 C 20.050781 215.839844 20.527344 215.921875 21.003906 215.992188 C 21.484375 216.058594 21.960938 216.113281 22.441406 216.152344 C 22.925781 216.191406 23.40625 216.21875 23.886719 216.226562 C 24.371094 216.238281 24.851562 216.234375 25.335938 216.214844 C 25.816406 216.195312 26.300781 216.164062 26.78125 216.117188 C 27.257812 216.070312 27.738281 216.007812 28.214844 215.929688 C 28.691406 215.855469 29.164062 215.761719 29.636719 215.660156 C 30.105469 215.554688 30.574219 215.433594 31.039062 215.300781 C 31.503906 215.167969 31.960938 215.019531 32.417969 214.859375 C 32.871094 214.699219 33.320312 214.527344 33.765625 214.335938 C 34.210938 214.148438 34.648438 213.949219 35.082031 213.734375 C 35.515625 213.519531 35.941406 213.292969 36.359375 213.054688 C 36.777344 212.8125 37.1875 212.5625 37.589844 212.296875 C 37.996094 212.03125 38.390625 211.753906 38.777344 211.46875 C 39.164062 211.179688 39.542969 210.878906 39.910156 210.566406 C 40.28125 210.257812 40.640625 209.933594 40.988281 209.601562 C 41.339844 209.269531 41.675781 208.925781 42.007812 208.570312 C 42.335938 208.21875 42.652344 207.855469 42.960938 207.484375 C 43.265625 207.113281 43.5625 206.730469 43.847656 206.339844 C 44.128906 205.949219 44.402344 205.550781 44.664062 205.144531 C 44.921875 204.738281 45.167969 204.324219 45.40625 203.902344 C 45.640625 203.480469 45.863281 203.054688 46.070312 202.617188 C 46.28125 202.183594 46.476562 201.742188 46.660156 201.296875 C 46.84375 200.847656 47.011719 200.398438 47.167969 199.941406 C 47.320312 199.484375 47.464844 199.023438 47.589844 198.558594 C 47.71875 198.089844 47.832031 197.621094 47.933594 197.152344 C 48.03125 196.679688 48.117188 196.203125 48.1875 195.726562 C 48.257812 195.25 48.316406 194.769531 48.359375 194.289062 C 48.398438 193.808594 48.425781 193.328125 48.441406 192.84375 C 48.453125 192.363281 48.453125 191.878906 48.4375 191.398438 C 48.421875 190.914062 48.390625 190.433594 48.34375 189.953125 C 48.300781 189.472656 48.242188 188.992188 48.167969 188.515625 C 48.09375 188.039062 48.003906 187.566406 47.902344 187.09375 C 47.800781 186.621094 47.683594 186.152344 47.554688 185.691406 C 47.421875 185.226562 47.277344 184.765625 47.121094 184.308594 C 46.960938 183.851562 46.789062 183.402344 46.605469 182.957031 C 46.417969 182.511719 46.21875 182.070312 46.007812 181.636719 C 45.796875 181.203125 45.570312 180.777344 45.335938 180.355469 C 45.097656 179.9375 44.847656 179.523438 44.585938 179.121094 C 44.320312 178.714844 44.046875 178.316406 43.761719 177.929688 C 43.476562 177.539062 43.175781 177.160156 42.867188 176.789062 C 42.558594 176.421875 42.238281 176.058594 41.90625 175.707031 C 41.578125 175.355469 41.234375 175.015625 40.882812 174.683594 C 40.53125 174.355469 40.171875 174.035156 39.800781 173.726562 C 39.429688 173.417969 39.050781 173.117188 38.664062 172.832031 C 38.273438 172.546875 37.875 172.273438 37.472656 172.011719 C 37.066406 171.746094 36.652344 171.5 36.234375 171.261719 C 35.8125 171.023438 35.386719 170.796875 34.953125 170.585938 C 34.519531 170.375 34.078125 170.175781 33.632812 169.992188 C 33.1875 169.808594 32.738281 169.636719 32.28125 169.476562 C 32.585938 167.347656 32.9375 165.222656 33.328125 163.105469 C 33.71875 160.988281 34.152344 158.878906 34.628906 156.777344 C 35.101562 154.679688 35.621094 152.589844 36.179688 150.511719 C 36.738281 148.429688 37.335938 146.363281 37.976562 144.308594 C 38.621094 142.253906 39.300781 140.210938 40.023438 138.183594 C 40.746094 136.15625 41.507812 134.140625 42.3125 132.144531 C 43.113281 130.144531 43.957031 128.164062 44.839844 126.199219 C 45.71875 124.238281 46.640625 122.289062 47.601562 120.363281 C 48.558594 118.4375 49.558594 116.527344 50.59375 114.640625 C 51.628906 112.753906 52.699219 110.886719 53.808594 109.042969 C 54.921875 107.195312 56.066406 105.375 57.25 103.574219 C 58.429688 101.777344 59.648438 100 60.902344 98.25 C 62.15625 96.5 63.445312 94.773438 64.765625 93.074219 C 66.085938 91.375 67.441406 89.703125 68.832031 88.058594 C 70.222656 86.414062 71.640625 84.796875 73.09375 83.207031 C 74.546875 81.621094 76.03125 80.0625 77.546875 78.53125 C 79.0625 77.003906 80.609375 75.503906 82.183594 74.035156 C 83.757812 72.566406 85.363281 71.132812 86.996094 69.726562 C 88.628906 68.324219 90.289062 66.953125 91.976562 65.617188 C 93.660156 64.277344 95.375 62.976562 97.113281 61.707031 C 98.851562 60.4375 100.617188 59.203125 102.40625 58.003906 C 104.191406 56.804688 106.003906 55.640625 107.839844 54.515625 C 109.675781 53.386719 111.53125 52.296875 113.410156 51.246094 C 115.285156 50.191406 117.183594 49.179688 119.105469 48.203125 C 121.023438 47.222656 122.960938 46.285156 124.914062 45.386719 C 126.871094 44.488281 128.84375 43.625 130.835938 42.804688 C 132.824219 41.984375 134.832031 41.203125 136.851562 40.460938 C 138.875 39.722656 140.910156 39.019531 142.960938 38.359375 C 145.007812 37.699219 147.070312 37.082031 149.144531 36.503906 C 151.21875 35.925781 153.304688 35.390625 155.398438 34.894531 C 157.496094 34.402344 159.597656 33.949219 161.710938 33.539062 C 163.824219 33.128906 165.945312 32.757812 168.074219 32.433594 L 168.074219 42.46875 C 168.074219 42.859375 168.113281 43.25 168.191406 43.632812 C 168.265625 44.019531 168.378906 44.394531 168.53125 44.757812 C 168.679688 45.117188 168.863281 45.464844 169.082031 45.789062 C 169.300781 46.117188 169.550781 46.417969 169.828125 46.695312 C 170.105469 46.972656 170.40625 47.222656 170.734375 47.441406 C 171.058594 47.660156 171.402344 47.84375 171.765625 47.992188 C 172.128906 48.144531 172.503906 48.257812 172.890625 48.332031 C 173.273438 48.410156 173.664062 48.449219 174.054688 48.449219 L 209.945312 48.449219 C 210.335938 48.449219 210.726562 48.410156 211.109375 48.332031 C 211.496094 48.257812 211.871094 48.144531 212.234375 47.992188 C 212.59375 47.84375 212.941406 47.660156 213.265625 47.441406 C 213.59375 47.222656 213.894531 46.972656 214.171875 46.695312 C 214.449219 46.417969 214.699219 46.117188 214.917969 45.789062 C 215.136719 45.464844 215.320312 45.117188 215.46875 44.757812 C 215.621094 44.394531 215.734375 44.019531 215.808594 43.632812 C 215.886719 43.25 215.925781 42.859375 215.925781 42.46875 L 215.925781 32.433594 C 218.054688 32.757812 220.175781 33.128906 222.289062 33.539062 C 224.402344 33.949219 226.503906 34.402344 228.601562 34.894531 C 230.695312 35.390625 232.78125 35.925781 234.855469 36.503906 C 236.929688 37.082031 238.992188 37.699219 241.039062 38.359375 C 243.089844 39.019531 245.125 39.722656 247.148438 40.460938 C 249.167969 41.203125 251.175781 41.984375 253.164062 42.804688 C 255.15625 43.625 257.128906 44.488281 259.085938 45.386719 C 261.039062 46.285156 262.976562 47.222656 264.894531 48.203125 C 266.816406 49.179688 268.714844 50.191406 270.589844 51.246094 C 272.46875 52.296875 274.324219 53.386719 276.160156 54.515625 C 277.996094 55.640625 279.808594 56.804688 281.59375 58.003906 C 283.382812 59.203125 285.148438 60.4375 286.886719 61.707031 C 288.625 62.976562 290.339844 64.277344 292.023438 65.617188 C 293.710938 66.953125 295.371094 68.324219 297.003906 69.726562 C 298.636719 71.132812 300.242188 72.566406 301.816406 74.035156 C 303.390625 75.503906 304.9375 77.003906 306.453125 78.53125 C 307.96875 80.0625 309.453125 81.621094 310.90625 83.207031 C 312.359375 84.796875 313.78125 86.414062 315.167969 88.058594 C 316.558594 89.703125 317.914062 91.375 319.234375 93.074219 C 320.554688 94.773438 321.84375 96.5 323.097656 98.25 C 324.351562 100 325.570312 101.777344 326.75 103.574219 C 327.933594 105.375 329.078125 107.195312 330.191406 109.042969 C 331.300781 110.886719 332.371094 112.753906 333.40625 114.640625 C 334.441406 116.527344 335.441406 118.4375 336.398438 120.363281 C 337.359375 122.289062 338.28125 124.238281 339.160156 126.199219 C 340.042969 128.164062 340.886719 130.144531 341.6875 132.144531 C 342.492188 134.140625 343.253906 136.15625 343.976562 138.183594 C 344.699219 140.210938 345.378906 142.253906 346.023438 144.308594 C 346.664062 146.363281 347.261719 148.429688 347.820312 150.511719 C 348.378906 152.589844 348.898438 154.679688 349.371094 156.777344 C 349.847656 158.878906 350.28125 160.988281 350.671875 163.105469 C 351.0625 165.222656 351.414062 167.347656 351.71875 169.476562 C 350.816406 169.792969 349.933594 170.160156 349.074219 170.582031 C 348.214844 171.003906 347.386719 171.476562 346.585938 171.996094 C 345.78125 172.519531 345.015625 173.085938 344.28125 173.699219 C 343.546875 174.316406 342.851562 174.96875 342.199219 175.667969 C 341.542969 176.367188 340.933594 177.101562 340.367188 177.871094 C 339.800781 178.644531 339.28125 179.445312 338.8125 180.277344 C 338.34375 181.113281 337.925781 181.972656 337.558594 182.855469 C 337.191406 183.738281 336.882812 184.640625 336.625 185.5625 C 336.367188 186.484375 336.164062 187.417969 336.019531 188.363281 C 335.875 189.308594 335.789062 190.261719 335.757812 191.21875 C 335.726562 192.171875 335.753906 193.128906 335.839844 194.082031 C 335.921875 195.035156 336.066406 195.976562 336.265625 196.914062 C 336.460938 197.851562 336.714844 198.769531 337.023438 199.675781 C 337.335938 200.582031 337.695312 201.464844 338.113281 202.328125 C 338.527344 203.1875 338.996094 204.023438 339.511719 204.828125 C 340.027344 205.632812 340.589844 206.40625 341.199219 207.144531 C 341.808594 207.878906 342.457031 208.578125 343.152344 209.238281 C 343.84375 209.898438 344.574219 210.511719 345.34375 211.085938 C 346.109375 211.65625 346.910156 212.179688 347.738281 212.65625 C 348.570312 213.128906 349.425781 213.554688 350.308594 213.925781 C 351.1875 214.296875 352.089844 214.617188 353.007812 214.878906 C 353.929688 215.144531 354.859375 215.351562 355.804688 215.5 C 356.75 215.652344 357.699219 215.746094 358.65625 215.785156 C 359.613281 215.820312 360.566406 215.800781 361.519531 215.722656 C 362.476562 215.644531 363.421875 215.507812 364.359375 215.316406 C 365.292969 215.125 366.21875 214.875 367.125 214.574219 C 368.03125 214.269531 368.917969 213.914062 369.78125 213.503906 C 370.648438 213.09375 371.484375 212.632812 372.292969 212.121094 C 373.101562 211.613281 373.878906 211.054688 374.621094 210.449219 C 375.359375 209.847656 376.0625 209.199219 376.726562 208.511719 C 377.390625 207.824219 378.011719 207.097656 378.589844 206.332031 C 379.164062 205.570312 379.695312 204.773438 380.175781 203.945312 C 380.65625 203.121094 381.085938 202.265625 381.464844 201.386719 C 381.839844 200.507812 382.164062 199.609375 382.433594 198.691406 C 382.703125 197.773438 382.917969 196.84375 383.074219 195.898438 C 383.234375 194.957031 383.335938 194.007812 383.378906 193.050781 C 383.421875 192.09375 383.40625 191.140625 383.335938 190.1875 C 383.261719 189.230469 383.132812 188.285156 382.949219 187.347656 C 382.761719 186.410156 382.519531 185.484375 382.222656 184.574219 C 381.925781 183.664062 381.578125 182.777344 381.171875 181.910156 C 380.769531 181.042969 380.3125 180.203125 379.808594 179.390625 C 379.304688 178.578125 378.75 177.796875 378.152344 177.050781 C 377.554688 176.308594 376.910156 175.597656 376.226562 174.929688 C 375.542969 174.261719 374.820312 173.636719 374.0625 173.054688 C 373.300781 172.472656 372.511719 171.9375 371.6875 171.453125 C 370.863281 170.964844 370.011719 170.53125 369.136719 170.148438 C 368.257812 169.765625 367.363281 169.433594 366.445312 169.15625 C 365.53125 168.882812 364.601562 168.660156 363.660156 168.496094 C 363.128906 164.699219 362.472656 160.921875 361.695312 157.164062 C 360.914062 153.410156 360.011719 149.683594 358.988281 145.988281 C 357.960938 142.292969 356.816406 138.632812 355.546875 135.011719 C 354.28125 131.390625 352.894531 127.816406 351.390625 124.289062 C 349.886719 120.761719 348.269531 117.285156 346.539062 113.863281 C 344.804688 110.441406 342.960938 107.078125 341.007812 103.777344 C 339.050781 100.476562 336.988281 97.246094 334.820312 94.082031 C 332.652344 90.917969 330.382812 87.828125 328.007812 84.816406 C 325.636719 81.800781 323.167969 78.867188 320.601562 76.015625 C 318.035156 73.167969 315.378906 70.402344 312.628906 67.726562 C 309.878906 65.050781 307.046875 62.46875 304.128906 59.980469 C 301.207031 57.492188 298.210938 55.105469 295.132812 52.8125 C 292.054688 50.523438 288.90625 48.335938 285.6875 46.253906 C 282.464844 44.171875 279.175781 42.199219 275.824219 40.332031 C 272.472656 38.46875 269.0625 36.714844 265.597656 35.074219 C 262.128906 33.4375 258.609375 31.914062 255.042969 30.503906 L 335.550781 30.503906 L 335.550781 42.46875 C 335.550781 42.859375 335.589844 43.25 335.667969 43.632812 C 335.742188 44.019531 335.855469 44.394531 336.007812 44.757812 C 336.15625 45.117188 336.339844 45.464844 336.558594 45.789062 C 336.777344 46.117188 337.027344 46.417969 337.304688 46.695312 C 337.582031 46.972656 337.882812 47.222656 338.210938 47.441406 C 338.535156 47.660156 338.878906 47.84375 339.242188 47.992188 C 339.605469 48.144531 339.980469 48.257812 340.367188 48.332031 C 340.75 48.410156 341.140625 48.449219 341.53125 48.449219 Z M 36.484375 36.484375 L 12.5625 36.484375 L 12.5625 12.5625 L 36.484375 12.5625 Z M 36.484375 192 C 36.484375 192.785156 36.410156 193.5625 36.257812 194.332031 C 36.101562 195.105469 35.875 195.851562 35.574219 196.578125 C 35.273438 197.304688 34.90625 197.992188 34.46875 198.644531 C 34.035156 199.300781 33.539062 199.902344 32.980469 200.457031 C 32.425781 201.015625 31.824219 201.511719 31.167969 201.945312 C 30.515625 202.382812 29.828125 202.75 29.101562 203.050781 C 28.375 203.351562 27.628906 203.578125 26.855469 203.734375 C 26.085938 203.886719 25.308594 203.960938 24.523438 203.960938 C 23.738281 203.960938 22.960938 203.886719 22.191406 203.734375 C 21.417969 203.578125 20.671875 203.351562 19.945312 203.050781 C 19.21875 202.75 18.53125 202.382812 17.878906 201.945312 C 17.222656 201.511719 16.621094 201.015625 16.066406 200.457031 C 15.507812 199.902344 15.011719 199.300781 14.578125 198.644531 C 14.140625 197.992188 13.773438 197.304688 13.472656 196.578125 C 13.171875 195.851562 12.945312 195.105469 12.789062 194.332031 C 12.636719 193.5625 12.5625 192.785156 12.5625 192 C 12.5625 191.214844 12.636719 190.4375 12.789062 189.667969 C 12.945312 188.894531 13.171875 188.148438 13.472656 187.421875 C 13.773438 186.695312 14.140625 186.007812 14.578125 185.355469 C 15.011719 184.699219 15.507812 184.097656 16.066406 183.542969 C 16.621094 182.984375 17.222656 182.488281 17.878906 182.054688 C 18.53125 181.617188 19.21875 181.25 19.945312 180.949219 C 20.671875 180.648438 21.417969 180.421875 22.191406 180.265625 C 22.960938 180.113281 23.738281 180.039062 24.523438 180.039062 C 25.308594 180.039062 26.085938 180.117188 26.855469 180.269531 C 27.625 180.421875 28.375 180.648438 29.097656 180.949219 C 29.824219 181.253906 30.515625 181.621094 31.167969 182.058594 C 31.820312 182.492188 32.421875 182.988281 32.980469 183.542969 C 33.535156 184.101562 34.03125 184.703125 34.464844 185.355469 C 34.902344 186.007812 35.269531 186.699219 35.570312 187.425781 C 35.875 188.148438 36.101562 188.898438 36.253906 189.667969 C 36.40625 190.4375 36.484375 191.214844 36.484375 192 Z M 371.4375 192 C 371.4375 192.785156 371.363281 193.5625 371.210938 194.332031 C 371.054688 195.105469 370.828125 195.851562 370.527344 196.578125 C 370.226562 197.304688 369.859375 197.992188 369.421875 198.644531 C 368.988281 199.300781 368.492188 199.902344 367.933594 200.457031 C 367.378906 201.015625 366.777344 201.511719 366.121094 201.945312 C 365.46875 202.382812 364.78125 202.75 364.054688 203.050781 C 363.328125 203.351562 362.582031 203.578125 361.808594 203.734375 C 361.039062 203.886719 360.261719 203.960938 359.476562 203.960938 C 358.691406 203.960938 357.914062 203.886719 357.144531 203.734375 C 356.371094 203.578125 355.625 203.351562 354.898438 203.050781 C 354.171875 202.75 353.484375 202.382812 352.832031 201.945312 C 352.175781 201.511719 351.574219 201.015625 351.019531 200.457031 C 350.460938 199.902344 349.964844 199.300781 349.53125 198.644531 C 349.09375 197.992188 348.726562 197.304688 348.425781 196.578125 C 348.125 195.851562 347.898438 195.105469 347.742188 194.332031 C 347.589844 193.5625 347.515625 192.785156 347.515625 192 C 347.515625 191.214844 347.589844 190.4375 347.742188 189.667969 C 347.898438 188.894531 348.125 188.148438 348.425781 187.421875 C 348.726562 186.695312 349.09375 186.007812 349.53125 185.355469 C 349.964844 184.699219 350.460938 184.097656 351.019531 183.542969 C 351.574219 182.984375 352.175781 182.488281 352.832031 182.054688 C 353.484375 181.617188 354.171875 181.25 354.898438 180.949219 C 355.625 180.648438 356.371094 180.421875 357.144531 180.265625 C 357.914062 180.113281 358.691406 180.039062 359.476562 180.039062 C 360.261719 180.039062 361.039062 180.117188 361.808594 180.269531 C 362.578125 180.421875 363.328125 180.648438 364.050781 180.949219 C 364.777344 181.253906 365.46875 181.621094 366.121094 182.058594 C 366.773438 182.492188 367.375 182.988281 367.933594 183.542969 C 368.488281 184.101562 368.984375 184.703125 369.417969 185.355469 C 369.855469 186.007812 370.222656 186.699219 370.527344 187.425781 C 370.828125 188.148438 371.054688 188.898438 371.207031 189.667969 C 371.359375 190.4375 371.4375 191.214844 371.4375 192 Z M 203.960938 36.484375 L 180.039062 36.484375 L 180.039062 12.5625 L 203.960938 12.5625 Z M 347.515625 12.5625 L 371.4375 12.5625 L 371.4375 36.484375 L 347.515625 36.484375 Z M 347.515625 12.5625 " fill-opacity="1" fill-rule="nonzero"/><path fill="#1a1a19" d="M 197.128906 63.3125 C 196.996094 63.09375 196.851562 62.882812 196.691406 62.679688 C 196.53125 62.480469 196.359375 62.289062 196.175781 62.109375 C 195.992188 61.929688 195.796875 61.761719 195.589844 61.609375 C 195.386719 61.453125 195.171875 61.3125 194.945312 61.1875 C 194.722656 61.058594 194.492188 60.949219 194.253906 60.851562 C 194.015625 60.753906 193.773438 60.671875 193.523438 60.609375 C 193.273438 60.542969 193.023438 60.492188 192.769531 60.460938 C 192.511719 60.425781 192.257812 60.410156 192 60.410156 C 191.742188 60.410156 191.488281 60.425781 191.230469 60.460938 C 190.976562 60.492188 190.726562 60.542969 190.476562 60.609375 C 190.226562 60.671875 189.984375 60.753906 189.746094 60.851562 C 189.507812 60.949219 189.277344 61.058594 189.054688 61.1875 C 188.828125 61.3125 188.613281 61.453125 188.410156 61.609375 C 188.203125 61.761719 188.007812 61.929688 187.824219 62.109375 C 187.640625 62.289062 187.46875 62.480469 187.308594 62.679688 C 187.148438 62.882812 187.003906 63.09375 186.871094 63.3125 L 79.207031 242.753906 C 78.84375 243.359375 78.597656 244.007812 78.464844 244.703125 C 78.328125 245.394531 78.320312 246.089844 78.433594 246.789062 C 78.546875 247.484375 78.773438 248.140625 79.121094 248.757812 C 79.464844 249.371094 79.90625 249.910156 80.441406 250.371094 C 90.542969 259.042969 115.277344 284.378906 119.53125 305.644531 L 102.28125 305.644531 C 101.886719 305.644531 101.5 305.683594 101.113281 305.761719 C 100.726562 305.835938 100.355469 305.949219 99.992188 306.101562 C 99.628906 306.25 99.285156 306.433594 98.957031 306.652344 C 98.628906 306.871094 98.328125 307.117188 98.050781 307.398438 C 97.773438 307.675781 97.523438 307.976562 97.308594 308.304688 C 97.089844 308.628906 96.90625 308.972656 96.753906 309.335938 C 96.605469 309.699219 96.492188 310.074219 96.414062 310.460938 C 96.335938 310.84375 96.300781 311.234375 96.300781 311.625 L 96.300781 347.515625 C 96.300781 347.90625 96.335938 348.296875 96.414062 348.679688 C 96.492188 349.066406 96.605469 349.441406 96.753906 349.804688 C 96.90625 350.164062 97.089844 350.511719 97.308594 350.835938 C 97.523438 351.164062 97.773438 351.464844 98.050781 351.742188 C 98.328125 352.019531 98.628906 352.269531 98.957031 352.488281 C 99.285156 352.707031 99.628906 352.890625 99.992188 353.039062 C 100.355469 353.191406 100.726562 353.304688 101.113281 353.378906 C 101.5 353.457031 101.886719 353.496094 102.28125 353.496094 L 114.242188 353.496094 L 114.242188 377.421875 C 114.242188 377.8125 114.28125 378.203125 114.359375 378.585938 C 114.433594 378.972656 114.546875 379.347656 114.699219 379.710938 C 114.847656 380.074219 115.03125 380.417969 115.25 380.742188 C 115.46875 381.070312 115.71875 381.371094 115.996094 381.648438 C 116.273438 381.925781 116.574219 382.175781 116.902344 382.394531 C 117.226562 382.613281 117.574219 382.796875 117.933594 382.945312 C 118.296875 383.097656 118.671875 383.210938 119.058594 383.285156 C 119.441406 383.363281 119.832031 383.402344 120.222656 383.402344 C 120.617188 383.402344 121.007812 383.363281 121.390625 383.285156 C 121.777344 383.210938 122.152344 383.097656 122.511719 382.945312 C 122.875 382.796875 123.222656 382.613281 123.546875 382.394531 C 123.875 382.175781 124.175781 381.925781 124.453125 381.648438 C 124.730469 381.371094 124.980469 381.070312 125.199219 380.742188 C 125.414062 380.417969 125.601562 380.074219 125.75 379.710938 C 125.902344 379.347656 126.015625 378.972656 126.089844 378.585938 C 126.167969 378.203125 126.207031 377.8125 126.207031 377.421875 L 126.207031 353.496094 L 257.792969 353.496094 L 257.792969 377.421875 C 257.792969 377.8125 257.832031 378.203125 257.910156 378.585938 C 257.984375 378.972656 258.097656 379.347656 258.25 379.710938 C 258.398438 380.074219 258.585938 380.417969 258.800781 380.742188 C 259.019531 381.070312 259.269531 381.371094 259.546875 381.648438 C 259.824219 381.925781 260.125 382.175781 260.453125 382.394531 C 260.777344 382.613281 261.125 382.796875 261.488281 382.945312 C 261.847656 383.097656 262.222656 383.210938 262.609375 383.285156 C 262.992188 383.363281 263.382812 383.402344 263.777344 383.402344 C 264.167969 383.402344 264.558594 383.363281 264.941406 383.285156 C 265.328125 383.210938 265.703125 383.097656 266.066406 382.945312 C 266.425781 382.796875 266.773438 382.613281 267.097656 382.394531 C 267.425781 382.175781 267.726562 381.925781 268.003906 381.648438 C 268.28125 381.371094 268.53125 381.070312 268.75 380.742188 C 268.96875 380.417969 269.152344 380.074219 269.300781 379.710938 C 269.453125 379.347656 269.566406 378.972656 269.640625 378.585938 C 269.71875 378.203125 269.757812 377.8125 269.757812 377.421875 L 269.757812 353.496094 L 281.71875 353.496094 C 282.113281 353.496094 282.5 353.457031 282.886719 353.378906 C 283.273438 353.304688 283.644531 353.191406 284.007812 353.039062 C 284.371094 352.890625 284.714844 352.707031 285.042969 352.488281 C 285.371094 352.269531 285.671875 352.019531 285.949219 351.742188 C 286.226562 351.464844 286.476562 351.164062 286.691406 350.835938 C 286.910156 350.511719 287.09375 350.164062 287.246094 349.804688 C 287.394531 349.441406 287.507812 349.066406 287.585938 348.679688 C 287.664062 348.296875 287.699219 347.90625 287.699219 347.515625 L 287.699219 311.625 C 287.699219 311.234375 287.664062 310.84375 287.585938 310.460938 C 287.507812 310.074219 287.394531 309.699219 287.246094 309.335938 C 287.09375 308.972656 286.910156 308.628906 286.691406 308.304688 C 286.476562 307.976562 286.226562 307.675781 285.949219 307.398438 C 285.671875 307.117188 285.371094 306.871094 285.042969 306.652344 C 284.714844 306.433594 284.371094 306.25 284.007812 306.101562 C 283.644531 305.949219 283.273438 305.835938 282.886719 305.757812 C 282.5 305.683594 282.113281 305.644531 281.71875 305.644531 L 264.46875 305.644531 C 268.722656 284.378906 293.460938 259.042969 303.558594 250.371094 C 304.09375 249.910156 304.535156 249.371094 304.878906 248.757812 C 305.226562 248.140625 305.453125 247.484375 305.566406 246.789062 C 305.679688 246.089844 305.671875 245.394531 305.539062 244.703125 C 305.402344 244.007812 305.15625 243.359375 304.792969 242.753906 Z M 192 209.945312 C 192.585938 209.945312 193.175781 209.972656 193.757812 210.03125 C 194.34375 210.089844 194.925781 210.175781 195.5 210.289062 C 196.078125 210.402344 196.644531 210.546875 197.207031 210.714844 C 197.769531 210.886719 198.324219 211.085938 198.867188 211.308594 C 199.410156 211.535156 199.941406 211.785156 200.457031 212.0625 C 200.976562 212.339844 201.480469 212.640625 201.96875 212.96875 C 202.457031 213.292969 202.929688 213.644531 203.382812 214.015625 C 203.835938 214.390625 204.273438 214.785156 204.6875 215.199219 C 205.105469 215.613281 205.496094 216.050781 205.871094 216.503906 C 206.242188 216.957031 206.59375 217.429688 206.917969 217.917969 C 207.246094 218.40625 207.546875 218.910156 207.824219 219.429688 C 208.101562 219.949219 208.351562 220.476562 208.578125 221.019531 C 208.804688 221.5625 209 222.117188 209.171875 222.679688 C 209.34375 223.242188 209.484375 223.8125 209.597656 224.386719 C 209.714844 224.964844 209.800781 225.542969 209.859375 226.128906 C 209.914062 226.714844 209.945312 227.300781 209.945312 227.886719 C 209.945312 228.476562 209.914062 229.0625 209.859375 229.648438 C 209.800781 230.230469 209.714844 230.8125 209.597656 231.386719 C 209.484375 231.964844 209.34375 232.535156 209.171875 233.097656 C 209 233.660156 208.804688 234.210938 208.578125 234.753906 C 208.351562 235.296875 208.101562 235.828125 207.824219 236.347656 C 207.546875 236.863281 207.246094 237.367188 206.917969 237.855469 C 206.59375 238.34375 206.242188 238.816406 205.871094 239.269531 C 205.496094 239.726562 205.105469 240.160156 204.6875 240.574219 C 204.273438 240.992188 203.835938 241.386719 203.382812 241.757812 C 202.929688 242.132812 202.457031 242.480469 201.96875 242.808594 C 201.480469 243.132812 200.976562 243.4375 200.457031 243.714844 C 199.941406 243.988281 199.410156 244.242188 198.867188 244.464844 C 198.324219 244.691406 197.769531 244.886719 197.207031 245.058594 C 196.644531 245.230469 196.078125 245.371094 195.5 245.488281 C 194.925781 245.601562 194.34375 245.6875 193.757812 245.746094 C 193.175781 245.804688 192.585938 245.832031 192 245.832031 C 191.414062 245.832031 190.824219 245.804688 190.242188 245.746094 C 189.65625 245.6875 189.074219 245.601562 188.5 245.488281 C 187.921875 245.371094 187.355469 245.230469 186.792969 245.058594 C 186.230469 244.886719 185.675781 244.691406 185.132812 244.464844 C 184.589844 244.242188 184.058594 243.988281 183.542969 243.714844 C 183.023438 243.4375 182.519531 243.132812 182.03125 242.808594 C 181.542969 242.480469 181.070312 242.132812 180.617188 241.757812 C 180.164062 241.386719 179.726562 240.992188 179.3125 240.574219 C 178.894531 240.160156 178.503906 239.726562 178.128906 239.269531 C 177.757812 238.816406 177.40625 238.34375 177.082031 237.855469 C 176.753906 237.367188 176.453125 236.863281 176.175781 236.347656 C 175.898438 235.828125 175.648438 235.296875 175.421875 234.753906 C 175.195312 234.210938 175 233.660156 174.828125 233.097656 C 174.65625 232.535156 174.515625 231.964844 174.402344 231.386719 C 174.285156 230.8125 174.199219 230.230469 174.140625 229.648438 C 174.085938 229.0625 174.054688 228.476562 174.054688 227.886719 C 174.058594 227.300781 174.085938 226.714844 174.144531 226.128906 C 174.203125 225.546875 174.289062 224.964844 174.402344 224.386719 C 174.519531 223.8125 174.664062 223.242188 174.832031 222.679688 C 175.003906 222.117188 175.203125 221.566406 175.425781 221.023438 C 175.652344 220.480469 175.902344 219.949219 176.179688 219.433594 C 176.457031 218.914062 176.757812 218.410156 177.085938 217.921875 C 177.414062 217.433594 177.761719 216.964844 178.136719 216.507812 C 178.507812 216.054688 178.902344 215.621094 179.316406 215.207031 C 179.734375 214.789062 180.167969 214.394531 180.621094 214.023438 C 181.074219 213.648438 181.546875 213.300781 182.035156 212.972656 C 182.523438 212.648438 183.027344 212.34375 183.546875 212.070312 C 184.0625 211.792969 184.59375 211.539062 185.136719 211.316406 C 185.679688 211.089844 186.230469 210.890625 186.792969 210.722656 C 187.355469 210.550781 187.925781 210.40625 188.5 210.292969 C 189.078125 210.175781 189.65625 210.089844 190.242188 210.03125 C 190.828125 209.972656 191.414062 209.945312 192 209.945312 Z M 275.738281 341.53125 L 108.261719 341.53125 L 108.261719 317.609375 L 275.738281 317.609375 Z M 252.273438 305.644531 L 131.726562 305.644531 C 127.964844 280.339844 101.921875 253.945312 91.996094 244.691406 L 186.019531 87.988281 L 186.019531 198.585938 C 185.421875 198.707031 184.824219 198.847656 184.234375 199.007812 C 183.644531 199.164062 183.0625 199.34375 182.484375 199.535156 C 181.902344 199.730469 181.332031 199.941406 180.765625 200.171875 C 180.199219 200.402344 179.640625 200.648438 179.089844 200.910156 C 178.539062 201.175781 177.996094 201.457031 177.460938 201.753906 C 176.929688 202.050781 176.402344 202.363281 175.890625 202.691406 C 175.375 203.019531 174.871094 203.367188 174.378906 203.726562 C 173.882812 204.085938 173.402344 204.460938 172.929688 204.847656 C 172.460938 205.238281 172.003906 205.640625 171.554688 206.058594 C 171.109375 206.476562 170.679688 206.910156 170.257812 207.351562 C 169.839844 207.796875 169.433594 208.253906 169.042969 208.722656 C 168.652344 209.191406 168.273438 209.671875 167.910156 210.164062 C 167.550781 210.65625 167.203125 211.15625 166.871094 211.671875 C 166.539062 212.183594 166.226562 212.707031 165.925781 213.238281 C 165.628906 213.773438 165.34375 214.3125 165.078125 214.863281 C 164.8125 215.414062 164.5625 215.96875 164.332031 216.535156 C 164.101562 217.101562 163.886719 217.671875 163.6875 218.25 C 163.492188 218.828125 163.3125 219.414062 163.152344 220 C 162.992188 220.589844 162.847656 221.183594 162.722656 221.78125 C 162.597656 222.378906 162.492188 222.980469 162.40625 223.585938 C 162.316406 224.191406 162.246094 224.796875 162.195312 225.40625 C 162.144531 226.015625 162.113281 226.625 162.101562 227.234375 C 162.085938 227.847656 162.09375 228.457031 162.117188 229.066406 C 162.140625 229.675781 162.183594 230.285156 162.246094 230.894531 C 162.304688 231.5 162.386719 232.105469 162.484375 232.710938 C 162.582031 233.3125 162.699219 233.910156 162.835938 234.507812 C 162.96875 235.101562 163.125 235.695312 163.296875 236.28125 C 163.464844 236.867188 163.65625 237.449219 163.863281 238.023438 C 164.070312 238.597656 164.292969 239.164062 164.535156 239.726562 C 164.777344 240.285156 165.035156 240.839844 165.3125 241.382812 C 165.585938 241.929688 165.878906 242.464844 166.1875 242.992188 C 166.496094 243.519531 166.820312 244.039062 167.160156 244.542969 C 167.5 245.050781 167.855469 245.546875 168.226562 246.035156 C 168.597656 246.519531 168.984375 246.992188 169.382812 247.457031 C 169.78125 247.917969 170.195312 248.367188 170.625 248.804688 C 171.050781 249.238281 171.492188 249.664062 171.945312 250.074219 C 172.398438 250.480469 172.863281 250.878906 173.339844 251.257812 C 173.816406 251.640625 174.304688 252.007812 174.804688 252.355469 C 175.304688 252.707031 175.816406 253.042969 176.335938 253.363281 C 176.855469 253.683594 177.386719 253.988281 177.925781 254.273438 C 178.464844 254.5625 179.011719 254.832031 179.566406 255.085938 C 180.121094 255.339844 180.683594 255.578125 181.253906 255.796875 C 181.824219 256.015625 182.402344 256.21875 182.984375 256.402344 C 183.566406 256.585938 184.152344 256.753906 184.746094 256.902344 C 185.339844 257.050781 185.933594 257.179688 186.535156 257.292969 C 187.136719 257.402344 187.738281 257.496094 188.34375 257.570312 C 188.953125 257.644531 189.558594 257.699219 190.167969 257.738281 C 190.777344 257.777344 191.390625 257.792969 192 257.792969 C 192.609375 257.792969 193.222656 257.777344 193.832031 257.738281 C 194.441406 257.699219 195.046875 257.644531 195.65625 257.570312 C 196.261719 257.496094 196.863281 257.402344 197.464844 257.292969 C 198.066406 257.179688 198.660156 257.050781 199.253906 256.902344 C 199.847656 256.753906 200.433594 256.585938 201.015625 256.402344 C 201.597656 256.21875 202.175781 256.015625 202.746094 255.796875 C 203.316406 255.578125 203.878906 255.339844 204.433594 255.085938 C 204.988281 254.832031 205.535156 254.5625 206.074219 254.273438 C 206.613281 253.988281 207.144531 253.683594 207.664062 253.363281 C 208.183594 253.042969 208.695312 252.707031 209.195312 252.355469 C 209.695312 252.007812 210.183594 251.640625 210.660156 251.257812 C 211.136719 250.878906 211.601562 250.480469 212.054688 250.074219 C 212.507812 249.664062 212.949219 249.238281 213.375 248.804688 C 213.804688 248.367188 214.21875 247.917969 214.617188 247.457031 C 215.015625 246.992188 215.402344 246.519531 215.773438 246.035156 C 216.144531 245.546875 216.5 245.050781 216.839844 244.542969 C 217.179688 244.039062 217.503906 243.519531 217.8125 242.992188 C 218.121094 242.464844 218.414062 241.929688 218.6875 241.382812 C 218.964844 240.839844 219.222656 240.285156 219.464844 239.726562 C 219.707031 239.164062 219.929688 238.597656 220.136719 238.023438 C 220.34375 237.449219 220.535156 236.867188 220.703125 236.28125 C 220.875 235.695312 221.03125 235.101562 221.164062 234.507812 C 221.300781 233.910156 221.417969 233.3125 221.515625 232.710938 C 221.613281 232.105469 221.695312 231.5 221.753906 230.894531 C 221.816406 230.285156 221.859375 229.675781 221.882812 229.066406 C 221.90625 228.457031 221.914062 227.847656 221.898438 227.234375 C 221.886719 226.625 221.855469 226.015625 221.804688 225.40625 C 221.753906 224.796875 221.683594 224.191406 221.59375 223.585938 C 221.507812 222.980469 221.402344 222.378906 221.277344 221.78125 C 221.152344 221.183594 221.007812 220.589844 220.847656 220 C 220.6875 219.414062 220.507812 218.828125 220.3125 218.25 C 220.113281 217.671875 219.898438 217.101562 219.667969 216.535156 C 219.4375 215.96875 219.1875 215.414062 218.921875 214.863281 C 218.65625 214.3125 218.371094 213.773438 218.074219 213.238281 C 217.773438 212.707031 217.457031 212.183594 217.128906 211.671875 C 216.796875 211.15625 216.449219 210.65625 216.085938 210.164062 C 215.726562 209.671875 215.347656 209.191406 214.957031 208.722656 C 214.566406 208.253906 214.160156 207.796875 213.742188 207.351562 C 213.320312 206.910156 212.890625 206.476562 212.445312 206.058594 C 211.996094 205.640625 211.539062 205.238281 211.070312 204.847656 C 210.597656 204.460938 210.117188 204.085938 209.621094 203.726562 C 209.128906 203.367188 208.625 203.019531 208.109375 202.691406 C 207.597656 202.363281 207.070312 202.050781 206.539062 201.753906 C 206.003906 201.457031 205.460938 201.175781 204.910156 200.910156 C 204.359375 200.648438 203.800781 200.402344 203.234375 200.171875 C 202.667969 199.941406 202.097656 199.730469 201.515625 199.535156 C 200.9375 199.34375 200.355469 199.164062 199.765625 199.007812 C 199.175781 198.847656 198.578125 198.707031 197.980469 198.585938 L 197.980469 87.988281 L 292.003906 244.691406 C 282.078125 253.945312 256.035156 280.339844 252.273438 305.644531 Z M 252.273438 305.644531 " fill-opacity="1" fill-rule="nonzero"/></svg>