<svg xmlns="http://www.w3.org/2000/svg" xmlns:xlink="http://www.w3.org/1999/xlink" width="512" zoomAndPan="magnify" viewBox="0 0 384 383.999986" height="512" preserveAspectRatio="xMidYMid meet" version="1.0"><defs><clipPath id="d8a4e8d4c8"><path d="M 0 79.242188 L 384 79.242188 L 384 304.992188 L 0 304.992188 Z M 0 79.242188 " clip-rule="nonzero"/></clipPath></defs><g clip-path="url(#d8a4e8d4c8)"><path fill="#1a1a19" d="M 367.375 280.519531 C 377.355469 273.96875 383.984375 262.695312 383.984375 249.894531 C 383.984375 229.707031 367.601562 213.328125 347.414062 213.328125 L 345.738281 213.328125 C 346.804688 211.5 347.414062 209.441406 347.414062 207.230469 C 347.414062 203.421875 345.664062 200.070312 342.921875 197.785156 C 352.824219 192.757812 359.605469 182.472656 359.605469 170.664062 C 359.605469 153.828125 345.96875 140.191406 329.128906 140.191406 L 316.40625 140.191406 C 316.710938 139.199219 316.941406 138.210938 316.941406 137.144531 C 316.941406 135.238281 316.332031 133.410156 315.339844 131.960938 C 325.246094 127.847656 332.179688 118.019531 332.179688 106.667969 C 332.179688 91.507812 319.914062 79.242188 304.75 79.242188 L 88.390625 79.242188 C 69.878906 79.242188 54.871094 94.25 54.871094 112.765625 C 54.871094 124.117188 60.507812 134.097656 69.117188 140.191406 L 64.011719 140.191406 C 42.148438 140.191406 24.394531 157.941406 24.394531 179.804688 C 24.394531 193.976562 31.863281 206.394531 43.0625 213.402344 C 19.0625 214.773438 0.015625 234.734375 0.015625 259.039062 C 0.015625 284.253906 20.511719 304.746094 45.726562 304.746094 L 365.699219 304.746094 C 372.402344 304.746094 377.886719 299.261719 377.886719 292.558594 C 377.886719 286.386719 373.316406 281.359375 367.375 280.519531 Z M 353.507812 170.664062 C 353.507812 184.074219 342.539062 195.042969 329.128906 195.042969 L 254.46875 195.042969 C 248.605469 195.042969 243.804688 190.242188 243.804688 184.378906 C 243.804688 178.511719 248.605469 173.710938 254.46875 173.710938 L 332.179688 173.710938 C 333.855469 173.710938 335.226562 172.339844 335.226562 170.664062 C 335.226562 168.988281 333.855469 167.617188 332.179688 167.617188 L 254.46875 167.617188 C 245.253906 167.617188 237.710938 175.160156 237.710938 184.378906 C 237.710938 193.59375 245.253906 201.136719 254.46875 201.136719 L 335.226562 201.136719 C 338.578125 201.136719 341.320312 203.878906 341.320312 207.230469 C 341.320312 210.585938 338.578125 213.328125 335.226562 213.328125 L 252.945312 213.328125 C 234.433594 213.328125 219.425781 198.320312 219.425781 179.804688 C 219.425781 161.292969 234.433594 146.285156 252.945312 146.285156 L 329.128906 146.285156 C 342.539062 146.285156 353.507812 157.253906 353.507812 170.664062 Z M 185.90625 213.328125 C 167.394531 213.328125 152.382812 198.320312 152.382812 179.804688 C 152.382812 161.292969 167.394531 146.285156 185.90625 146.285156 L 231.84375 146.285156 C 220.722656 153.292969 213.332031 165.710938 213.332031 179.804688 C 213.332031 193.898438 220.722656 206.316406 231.84375 213.328125 Z M 121.910156 179.804688 C 121.910156 161.292969 136.917969 146.285156 155.433594 146.285156 L 164.800781 146.285156 C 153.679688 153.292969 146.289062 165.710938 146.289062 179.804688 C 146.289062 193.898438 153.679688 206.316406 164.800781 213.328125 L 155.433594 213.328125 C 136.917969 213.328125 121.910156 198.320312 121.910156 179.804688 Z M 304.75 85.339844 C 316.484375 85.339844 326.082031 94.9375 326.082031 106.667969 C 326.082031 118.402344 316.484375 128 304.75 128 L 265.136719 128 C 260.109375 128 255.996094 123.886719 255.996094 118.859375 C 255.996094 113.832031 260.109375 109.71875 265.136719 109.71875 L 307.800781 109.71875 C 309.476562 109.71875 310.847656 108.347656 310.847656 106.667969 C 310.847656 104.992188 309.476562 103.621094 307.800781 103.621094 L 265.136719 103.621094 C 256.757812 103.621094 249.898438 110.480469 249.898438 118.859375 C 249.898438 127.238281 256.757812 134.097656 265.136719 134.097656 L 307.800781 134.097656 C 309.476562 134.097656 310.847656 135.46875 310.847656 137.144531 C 310.847656 138.820312 309.476562 140.191406 307.800781 140.191406 L 259.042969 140.191406 C 243.882812 140.191406 231.617188 127.925781 231.617188 112.765625 C 231.617188 97.605469 243.882812 85.339844 259.042969 85.339844 Z M 239.765625 85.339844 C 231.160156 91.433594 225.519531 101.414062 225.519531 112.765625 C 225.519531 124.117188 231.160156 134.097656 239.765625 140.191406 L 198.09375 140.191406 C 182.933594 140.191406 170.667969 127.925781 170.667969 112.765625 C 170.667969 97.605469 182.933594 85.339844 198.09375 85.339844 Z M 178.820312 85.339844 C 170.210938 91.433594 164.574219 101.414062 164.574219 112.765625 C 164.574219 124.117188 170.210938 134.097656 178.820312 140.191406 L 167.621094 140.191406 C 152.460938 140.191406 140.195312 127.925781 140.195312 112.765625 C 140.195312 97.605469 152.460938 85.339844 167.621094 85.339844 Z M 60.964844 112.765625 C 60.964844 97.605469 73.230469 85.339844 88.390625 85.339844 L 148.347656 85.339844 C 139.738281 91.433594 134.101562 101.414062 134.101562 112.765625 C 134.101562 124.117188 139.738281 134.097656 148.347656 140.191406 L 88.390625 140.191406 C 73.230469 140.191406 60.964844 127.925781 60.964844 112.765625 Z M 30.492188 179.804688 C 30.492188 161.292969 45.5 146.285156 64.011719 146.285156 L 134.328125 146.285156 C 123.207031 153.292969 115.816406 165.710938 115.816406 179.804688 C 115.816406 193.898438 123.207031 206.316406 134.328125 213.328125 L 64.011719 213.328125 C 45.5 213.328125 30.492188 198.320312 30.492188 179.804688 Z M 45.726562 298.652344 C 23.863281 298.652344 6.113281 280.902344 6.113281 259.039062 C 6.113281 237.171875 23.863281 219.421875 45.726562 219.421875 L 126.558594 219.421875 C 112.84375 227.34375 103.625 242.125 103.625 259.039062 C 103.625 275.949219 112.84375 290.730469 126.558594 298.652344 Z M 149.335938 298.652344 C 127.472656 298.652344 109.722656 280.902344 109.722656 259.039062 C 109.722656 237.171875 127.472656 219.421875 149.335938 219.421875 L 163.125 219.421875 C 149.414062 227.34375 140.195312 242.125 140.195312 259.039062 C 140.195312 275.949219 149.414062 290.730469 163.125 298.652344 Z M 185.90625 298.652344 C 164.039062 298.652344 146.289062 280.902344 146.289062 259.039062 C 146.289062 237.171875 164.039062 219.421875 185.90625 219.421875 L 230.167969 219.421875 C 216.453125 227.34375 207.238281 242.125 207.238281 259.039062 C 207.238281 275.949219 216.453125 290.730469 230.167969 298.652344 Z M 365.699219 298.652344 L 252.945312 298.652344 C 231.082031 298.652344 213.332031 280.902344 213.332031 259.039062 C 213.332031 237.171875 231.082031 219.421875 252.945312 219.421875 L 347.414062 219.421875 C 364.25 219.421875 377.886719 233.058594 377.886719 249.894531 C 377.886719 266.730469 364.25 280.367188 347.414062 280.367188 L 257.519531 280.367188 C 249.976562 280.367188 243.804688 274.199219 243.804688 266.65625 C 243.804688 259.113281 249.976562 252.941406 257.519531 252.941406 L 356.558594 252.941406 C 358.234375 252.941406 359.605469 251.570312 359.605469 249.894531 C 359.605469 248.21875 358.234375 246.847656 356.558594 246.847656 L 257.519531 246.847656 C 246.625 246.847656 237.710938 255.761719 237.710938 266.65625 C 237.710938 277.550781 246.625 286.464844 257.519531 286.464844 L 365.699219 286.464844 C 369.050781 286.464844 371.792969 289.207031 371.792969 292.558594 C 371.792969 295.910156 369.050781 298.652344 365.699219 298.652344 Z M 365.699219 298.652344 " fill-opacity="1" fill-rule="nonzero"/></g></svg>