<svg xmlns="http://www.w3.org/2000/svg" xmlns:xlink="http://www.w3.org/1999/xlink" width="512" zoomAndPan="magnify" viewBox="0 0 384 383.999986" height="512" preserveAspectRatio="xMidYMid meet" version="1.0"><defs><clipPath id="1b60c5addc"><path d="M 8 59.519531 L 384 59.519531 L 384 324.269531 L 8 324.269531 Z M 8 59.519531 " clip-rule="nonzero"/></clipPath></defs><g clip-path="url(#1b60c5addc)"><path fill="#bb1125" d="M 15.769531 261.78125 C 15.746094 261.753906 15.746094 261.707031 15.71875 261.679688 C 8.835938 247.410156 0.00390625 182.527344 29.167969 131.863281 C 49.023438 97.386719 81.726562 76.234375 126.53125 68.75 L 126.40625 67.453125 C 126.082031 64.285156 128.375 61.464844 131.542969 61.140625 L 143.992188 59.84375 C 147.160156 59.519531 149.980469 61.816406 150.304688 64.984375 L 150.429688 66.128906 C 198.273438 63.386719 235.917969 75.335938 262.335938 101.777344 C 303.792969 143.214844 303.992188 205.753906 303.59375 218.199219 C 313.523438 224.734375 362.09375 257.117188 375.789062 272.183594 C 376.488281 272.980469 377.261719 273.828125 377.832031 274.753906 C 378.40625 275.550781 378.957031 276.472656 379.480469 277.347656 C 383.070312 283.832031 383.996094 289.792969 382.148438 294.558594 C 380.476562 298.875 376.734375 302.019531 371.046875 303.9375 C 369.128906 304.585938 367.082031 304.910156 364.9375 304.910156 C 353.210938 304.910156 338.019531 295.257812 319.734375 276.273438 C 302.871094 281.539062 284.460938 290.816406 264.929688 304.089844 C 245.421875 317.359375 223.269531 324.46875 201.792969 324.46875 C 199.273438 324.46875 196.777344 324.371094 194.28125 324.167969 C 156.863281 321.300781 122.589844 301.046875 92.277344 264.074219 L 19.289062 264.074219 C 17.839844 264.074219 16.394531 263.050781 15.769531 261.78125 Z M 35.800781 135.679688 C 10.457031 179.734375 15.394531 236.535156 21.207031 254.820312 C 28.042969 251.753906 44.257812 246.6875 82.050781 241.175781 C 85.269531 240.675781 88.761719 240.175781 92.578125 239.652344 C 86.09375 222.914062 66.410156 164.742188 86.21875 117.769531 C 93.203125 101.230469 104.476562 87.984375 119.667969 78.03125 C 81.503906 86.238281 53.214844 105.421875 35.800781 135.679688 Z M 256.894531 107.117188 C 231.851562 82.097656 195.78125 70.871094 149.703125 73.765625 C 147.535156 73.890625 145.539062 74.238281 143.417969 74.4375 C 119.21875 83.765625 102.355469 99.308594 93.300781 120.710938 C 73.992188 166.414062 95.371094 225.832031 100.4375 238.628906 C 105.875 237.957031 111.960938 237.234375 118.996094 236.433594 C 153.171875 232.644531 179.765625 226.03125 203.214844 220.195312 C 226.414062 214.433594 245.722656 209.617188 264.480469 209.617188 C 274.933594 209.617188 285.261719 211.117188 295.960938 214.757812 C 295.9375 197.769531 292.84375 143.039062 256.894531 107.117188 Z M 368.605469 296.703125 C 372.046875 295.558594 374.214844 293.886719 375.015625 291.789062 C 378.804688 282.035156 365.882812 272.257812 357.976562 271.261719 C 355.558594 270.984375 353.085938 270.859375 350.519531 270.859375 C 343.507812 270.859375 335.949219 271.859375 327.96875 273.828125 C 345.605469 291.515625 359.898438 299.625 368.605469 296.703125 Z M 194.832031 316.535156 C 216.859375 318.28125 240.234375 311.597656 260.589844 297.753906 C 281.59375 283.507812 301.449219 273.578125 319.609375 268.214844 C 319.609375 268.214844 319.609375 268.214844 319.636719 268.214844 C 332.132812 264.449219 343.707031 262.929688 354.308594 263.453125 C 332.929688 246.6875 300.824219 225.507812 297.957031 223.613281 C 268.273438 211.863281 241.730469 218.449219 205.035156 227.578125 C 181.335938 233.46875 154.492188 240.152344 119.820312 243.992188 C 107.070312 245.441406 97.394531 246.636719 89.335938 247.785156 C 91.582031 250.902344 93.976562 254.121094 96.917969 257.839844 C 126.15625 294.058594 159.085938 313.792969 194.832031 316.535156 Z M 86.242188 256.441406 C 84.320312 253.898438 82.550781 251.429688 80.902344 249.058594 C 62.917969 251.726562 50.195312 254.273438 41.363281 256.441406 Z M 86.242188 256.441406 " fill-opacity="1" fill-rule="nonzero"/></g></svg>