<svg xmlns="http://www.w3.org/2000/svg" xmlns:xlink="http://www.w3.org/1999/xlink" width="512" zoomAndPan="magnify" viewBox="0 0 384 383.999986" height="512" preserveAspectRatio="xMidYMid meet" version="1.0"><defs><clipPath id="f012c93c17"><path d="M 38.398438 0 L 338.398438 0 L 338.398438 384 L 38.398438 384 Z M 38.398438 0 " clip-rule="nonzero"/></clipPath></defs><g clip-path="url(#f012c93c17)"><path fill="#bb1125" d="M 337.050781 358.304688 C 337.050781 358.28125 338.359375 349.980469 338.359375 334.960938 C 338.359375 323.140625 338.359375 323.140625 338.1875 306.191406 L 338.046875 292.214844 C 337.867188 273.800781 335.777344 257.324219 333.773438 241.570312 C 332.386719 230.652344 331.042969 220.078125 330.414062 209.433594 C 329.566406 195.023438 327.785156 184.566406 325.84375 173.179688 C 324.28125 164.003906 322.609375 154.222656 321.253906 141.316406 C 318.257812 112.875 302.480469 75.328125 301.667969 73.410156 C 301.625 73.273438 301.550781 73.144531 301.445312 73.03125 L 301.445312 73.035156 C 301.398438 72.984375 285.480469 55.550781 259.195312 52.628906 C 259.015625 50.363281 258.421875 44.21875 257.003906 41.128906 C 256.074219 39.101562 255.011719 36.25 254.191406 32.601562 C 253.5625 29.820312 253.078125 26.574219 252.898438 22.878906 C 252.460938 13.769531 244.503906 6.195312 244.484375 6.171875 C 244.433594 6.125 244.378906 6.082031 244.324219 6.046875 L 244.316406 6.042969 C 244.238281 5.992188 244.152344 5.953125 244.0625 5.925781 L 244.050781 5.921875 L 244.039062 5.921875 L 244.003906 5.910156 L 243.980469 5.90625 C 225.492188 1.445312 205.976562 0.179688 188.546875 0.390625 C 188.488281 0.382812 188.425781 0.375 188.363281 0.375 C 188.289062 0.375 188.21875 0.382812 188.152344 0.398438 C 157.675781 0.8125 133.65625 5.71875 132.777344 5.902344 L 132.773438 5.902344 L 132.75 5.90625 L 132.699219 5.917969 L 132.675781 5.921875 L 132.675781 5.925781 L 132.648438 5.933594 L 132.632812 5.9375 L 132.625 5.9375 L 132.601562 5.949219 L 132.539062 5.972656 L 132.53125 5.976562 C 132.492188 5.996094 132.457031 6.015625 132.421875 6.035156 L 132.40625 6.046875 L 132.402344 6.050781 L 132.378906 6.0625 L 132.363281 6.074219 L 132.359375 6.078125 L 132.324219 6.105469 L 132.320312 6.105469 L 132.285156 6.136719 L 132.285156 6.140625 L 132.246094 6.171875 C 132.222656 6.195312 124.269531 13.769531 123.828125 22.878906 C 123.652344 26.574219 123.164062 29.820312 122.539062 32.601562 C 121.714844 36.25 120.652344 39.101562 119.722656 41.128906 C 118.308594 44.222656 117.710938 50.375 117.535156 52.636719 C 91.257812 55.566406 75.332031 72.984375 75.285156 73.035156 L 75.28125 73.03125 C 75.179688 73.144531 75.105469 73.273438 75.0625 73.410156 C 74.25 75.328125 58.46875 112.875 55.476562 141.316406 C 54.117188 154.222656 52.449219 164.003906 50.886719 173.179688 C 48.945312 184.566406 47.164062 195.023438 46.316406 209.433594 C 45.6875 220.078125 44.34375 230.652344 42.957031 241.570312 C 40.953125 257.324219 38.859375 273.800781 38.679688 292.214844 L 38.539062 306.191406 C 38.371094 323.140625 38.371094 323.140625 38.371094 334.960938 C 38.371094 349.980469 39.675781 358.28125 39.679688 358.304688 L 40.6875 358.164062 L 39.679688 358.308594 C 39.730469 358.671875 39.972656 358.96875 40.292969 359.101562 C 40.351562 359.128906 40.449219 359.175781 40.582031 359.234375 C 40.480469 360.710938 40.277344 364.164062 40.277344 367.550781 C 40.277344 371.796875 40.910156 380.046875 40.964844 380.769531 C 40.972656 381.207031 41.261719 381.605469 41.703125 381.730469 L 41.980469 380.753906 L 41.703125 381.730469 C 41.71875 381.734375 47.234375 383.289062 59.359375 383.597656 C 70.976562 383.894531 82.113281 381.996094 83 381.839844 C 83.425781 381.792969 83.789062 381.480469 83.886719 381.042969 L 82.890625 380.828125 L 83.882812 381.039062 C 83.886719 381.023438 85.195312 375.484375 85.429688 369.878906 C 85.597656 365.804688 85.804688 362.367188 85.902344 360.863281 L 86.011719 360.847656 L 85.9375 360.328125 L 85.9375 360.324219 L 86.011719 360.847656 C 86.472656 360.78125 86.816406 360.414062 86.875 359.972656 C 87.027344 359.136719 89.363281 346.277344 90.082031 339.570312 L 90.125 339.15625 C 90.710938 341.210938 91.257812 342.425781 91.496094 342.90625 C 91.480469 344.261719 91.472656 350.523438 92.5 356.351562 C 93.675781 363.019531 98.726562 371.410156 98.742188 371.4375 L 98.738281 371.4375 C 98.90625 371.714844 99.191406 371.882812 99.492188 371.917969 C 100.664062 372.132812 117.632812 375.179688 139.859375 374.441406 C 150.332031 374.089844 158.277344 373.867188 165.679688 373.746094 C 173.09375 373.625 179.984375 373.597656 188.339844 373.644531 L 188.390625 373.644531 C 196.746094 373.597656 203.636719 373.625 211.050781 373.746094 C 218.453125 373.867188 226.398438 374.089844 236.871094 374.441406 C 259.09375 375.179688 276.0625 372.132812 277.238281 371.917969 C 277.539062 371.882812 277.820312 371.714844 277.992188 371.4375 L 277.988281 371.4375 C 278.003906 371.410156 283.050781 363.019531 284.230469 356.351562 C 285.257812 350.523438 285.25 344.261719 285.234375 342.90625 C 285.472656 342.425781 286.015625 341.210938 286.601562 339.15625 L 286.648438 339.570312 C 287.367188 346.277344 289.703125 359.136719 289.851562 359.972656 C 289.910156 360.414062 290.253906 360.78125 290.71875 360.847656 L 290.792969 360.324219 L 290.792969 360.328125 L 290.71875 360.847656 L 290.828125 360.863281 C 290.921875 362.367188 291.128906 365.804688 291.300781 369.878906 C 291.535156 375.484375 292.84375 381.023438 292.847656 381.039062 L 293.839844 380.828125 L 292.847656 381.042969 C 292.9375 381.480469 293.304688 381.792969 293.730469 381.839844 C 294.617188 381.996094 305.753906 383.894531 317.367188 383.597656 C 329.492188 383.289062 335.011719 381.734375 335.023438 381.730469 L 334.746094 380.753906 L 335.027344 381.730469 C 335.46875 381.605469 335.757812 381.207031 335.765625 380.769531 C 335.820312 380.046875 336.449219 371.796875 336.449219 367.550781 C 336.449219 364.164062 336.246094 360.710938 336.148438 359.234375 C 336.28125 359.175781 336.375 359.128906 336.433594 359.101562 C 336.753906 358.96875 336.996094 358.671875 337.050781 358.308594 L 336.042969 358.164062 Z M 337.050781 358.304688 " fill-opacity="1" fill-rule="nonzero"/></g><path fill="#fefefe" d="M 133.457031 7.835938 C 136.28125 7.269531 158.902344 2.898438 187.351562 2.433594 L 187.351562 97.121094 C 177.652344 97.007812 167.976562 95.238281 159 91.824219 C 141.605469 85.203125 126.816406 72.375 119.519531 53.355469 C 119.613281 51.980469 120.136719 45.109375 121.574219 41.96875 C 122.550781 39.839844 123.667969 36.851562 124.523438 33.046875 C 125.171875 30.164062 125.675781 26.800781 125.863281 22.972656 C 126.222656 15.503906 132.253906 9.050781 133.457031 7.835938 Z M 133.457031 7.835938 " fill-opacity="1" fill-rule="nonzero"/><path fill="#fefefe" d="M 42.574219 359.988281 C 45.164062 360.835938 49.902344 361.980469 56.855469 362.074219 C 62.335938 362.152344 66.664062 362.09375 70.265625 361.96875 C 73.925781 361.84375 76.804688 361.65625 79.378906 361.464844 C 81.394531 361.316406 82.839844 361.191406 83.859375 361.09375 C 83.753906 362.777344 83.5625 366.035156 83.402344 369.800781 C 83.226562 374.050781 82.394531 378.324219 82.046875 379.941406 C 79.433594 380.367188 69.59375 381.828125 59.410156 381.570312 C 49.984375 381.332031 44.710938 380.339844 42.941406 379.941406 C 42.777344 377.738281 42.316406 371.1875 42.316406 367.550781 C 42.316406 364.617188 42.46875 361.640625 42.574219 359.988281 Z M 42.574219 359.988281 " fill-opacity="1" fill-rule="nonzero"/><path fill="#fefefe" d="M 292.878906 361.09375 C 293.894531 361.191406 295.34375 361.316406 297.359375 361.464844 C 299.933594 361.65625 302.808594 361.84375 306.472656 361.96875 C 310.074219 362.09375 314.398438 362.152344 319.878906 362.074219 C 326.832031 361.980469 331.574219 360.835938 334.160156 359.988281 C 334.265625 361.640625 334.421875 364.617188 334.421875 367.550781 C 334.421875 371.1875 333.957031 377.738281 333.792969 379.941406 C 332.027344 380.339844 326.75 381.332031 317.328125 381.570312 C 307.144531 381.832031 297.304688 380.367188 294.6875 379.941406 C 294.34375 378.324219 293.507812 374.050781 293.332031 369.800781 C 293.175781 366.035156 292.984375 362.777344 292.878906 361.09375 Z M 292.878906 361.09375 " fill-opacity="1" fill-rule="nonzero"/><path fill="#fefefe" d="M 288.253906 330.070312 C 288.324219 329.386719 288.386719 328.675781 288.441406 327.933594 L 288.484375 327.339844 C 289.234375 317 289.929688 307.433594 287.675781 285.175781 L 287.316406 281.683594 L 287.3125 281.601562 L 286.300781 281.707031 L 287.308594 281.601562 C 284.953125 258.535156 281.070312 220.558594 285.671875 199.554688 C 289.527344 181.976562 289.410156 174.40625 289.183594 159.21875 C 289.125 155.195312 289.054688 150.613281 289.054688 144.695312 C 289.054688 122.496094 298.148438 87.0625 300.898438 76.847656 C 304.660156 86.132812 316.683594 117.226562 319.238281 141.519531 C 320.609375 154.535156 322.28125 164.332031 323.847656 173.519531 C 325.777344 184.855469 327.554688 195.265625 328.394531 209.554688 C 329.019531 220.214844 330.371094 230.84375 331.765625 241.824219 C 333.757812 257.519531 335.851562 273.9375 336.027344 292.230469 L 336.167969 306.207031 C 336.328125 322.351562 336.328125 322.351562 336.328125 334.960938 C 336.328125 347.640625 335.398438 355.421875 335.121094 357.472656 L 334.816406 357.601562 C 334.742188 357.621094 334.675781 357.648438 334.609375 357.683594 C 332.679688 358.433594 327.84375 359.9375 319.855469 360.046875 C 314.425781 360.125 310.125 360.066406 306.535156 359.945312 C 303.003906 359.824219 300.113281 359.628906 297.503906 359.4375 C 294.316406 359.203125 292.589844 359.027344 291.734375 358.929688 C 291.214844 356.023438 289.296875 345.203125 288.671875 339.355469 C 288.027344 333.367188 288.191406 330.765625 288.234375 330.261719 L 288.238281 330.238281 L 288.238281 330.21875 L 288.242188 330.203125 L 288.242188 330.1875 L 288.246094 330.179688 L 288.246094 330.171875 C 288.25 330.136719 288.253906 330.105469 288.253906 330.070312 Z M 288.253906 330.070312 " fill-opacity="1" fill-rule="nonzero"/><path fill="#fefefe" d="M 188.359375 345.730469 C 185.320312 345.714844 180.21875 345.734375 173.035156 345.925781 C 165.816406 346.121094 156.511719 346.484375 145.113281 347.152344 C 116.453125 348.828125 96.265625 342.804688 93.226562 341.835938 C 92.722656 340.761719 91.238281 337.128906 90.511719 329.96875 L 90.507812 329.941406 L 90.503906 329.921875 L 90.503906 329.886719 L 90.5 329.878906 L 90.5 329.863281 L 90.472656 329.570312 C 90.414062 329 90.367188 328.40625 90.320312 327.789062 L 90.277344 327.195312 C 89.535156 316.9375 88.84375 307.445312 91.078125 285.375 L 91.433594 281.886719 L 91.445312 281.808594 C 93.816406 258.613281 97.71875 220.429688 93.046875 199.125 C 89.238281 181.742188 89.351562 174.257812 89.578125 159.242188 C 89.640625 154.964844 89.714844 150.097656 89.714844 144.695312 C 89.714844 119.996094 78.617188 79.222656 77.164062 74.003906 C 79.699219 71.425781 94.582031 57.207031 117.839844 54.644531 C 125.433594 73.945312 140.539062 86.972656 158.273438 93.722656 C 167.804688 97.351562 178.089844 99.164062 188.375 99.164062 C 198.65625 99.164062 208.945312 97.351562 218.472656 93.722656 C 236.207031 86.972656 251.316406 73.945312 258.910156 54.640625 C 282.164062 57.203125 297.035156 71.421875 299.566406 74.003906 C 298.117188 79.21875 287.015625 119.996094 287.015625 144.695312 C 287.015625 150.097656 287.089844 154.964844 287.152344 159.242188 C 287.378906 174.257812 287.488281 181.742188 283.679688 199.125 C 279.011719 220.429688 282.914062 258.613281 285.285156 281.808594 L 285.292969 281.886719 L 285.648438 285.375 C 287.886719 307.445312 287.199219 316.9375 286.453125 327.195312 L 286.410156 327.789062 C 286.355469 328.515625 286.296875 329.207031 286.230469 329.867188 L 286.230469 329.878906 L 286.226562 329.886719 L 286.226562 329.902344 L 286.222656 329.921875 L 286.222656 329.941406 L 286.21875 329.96875 C 285.492188 337.128906 284.007812 340.761719 283.5 341.835938 C 280.464844 342.804688 260.277344 348.828125 231.617188 347.152344 C 220.21875 346.484375 210.914062 346.121094 203.695312 345.925781 C 196.511719 345.734375 191.410156 345.714844 188.371094 345.730469 Z M 188.359375 345.730469 " fill-opacity="1" fill-rule="nonzero"/><path fill="#fefefe" d="M 93.523438 344.046875 C 98.648438 345.582031 118.273438 350.753906 145.226562 349.179688 C 156.664062 348.507812 165.933594 348.144531 173.085938 347.953125 C 180.25 347.761719 185.324219 347.742188 188.34375 347.757812 L 188.390625 347.757812 C 191.414062 347.742188 196.484375 347.761719 203.652344 347.953125 C 210.804688 348.144531 220.070312 348.507812 231.507812 349.179688 C 258.460938 350.753906 278.085938 345.582031 283.210938 344.046875 C 283.195312 346.367188 283.058594 351.316406 282.230469 356.003906 C 281.257812 361.496094 277.457031 368.3125 276.484375 369.992188 C 273.621094 370.492188 257.585938 373.101562 236.9375 372.414062 C 226.484375 372.0625 218.53125 371.839844 211.085938 371.71875 C 203.660156 371.597656 196.753906 371.570312 188.371094 371.617188 L 188.363281 371.617188 C 179.980469 371.570312 173.074219 371.597656 165.648438 371.71875 C 158.203125 371.839844 150.25 372.0625 139.796875 372.414062 C 119.148438 373.101562 103.113281 370.492188 100.25 369.992188 C 99.277344 368.3125 95.476562 361.496094 94.503906 356.003906 C 93.679688 351.316406 93.539062 346.367188 93.523438 344.046875 Z M 93.523438 344.046875 " fill-opacity="1" fill-rule="nonzero"/><path fill="#fefefe" d="M 75.839844 76.847656 C 78.589844 87.0625 87.683594 122.496094 87.683594 144.695312 C 87.683594 150.613281 87.613281 155.195312 87.550781 159.21875 C 87.324219 174.40625 87.210938 181.976562 91.0625 199.554688 C 95.667969 220.558594 91.785156 258.535156 89.425781 281.601562 L 90.4375 281.707031 L 89.421875 281.601562 L 89.417969 281.683594 L 89.0625 285.175781 C 86.808594 307.433594 87.503906 317 88.253906 327.339844 L 88.296875 327.933594 C 88.347656 328.675781 88.414062 329.386719 88.480469 330.070312 C 88.484375 330.105469 88.484375 330.136719 88.492188 330.171875 L 88.492188 330.1875 L 88.496094 330.203125 L 88.496094 330.238281 L 88.5 330.261719 C 88.542969 330.765625 88.707031 333.367188 88.066406 339.355469 C 87.4375 345.203125 85.523438 356.023438 85 358.929688 C 84.144531 359.027344 82.421875 359.203125 79.234375 359.4375 C 76.621094 359.628906 73.734375 359.824219 70.203125 359.945312 C 66.613281 360.066406 62.3125 360.125 56.878906 360.046875 C 48.890625 359.9375 44.058594 358.433594 42.125 357.683594 C 42.0625 357.648438 41.992188 357.621094 41.921875 357.601562 L 41.617188 357.472656 C 41.335938 355.421875 40.410156 347.640625 40.410156 334.960938 C 40.410156 322.351562 40.410156 322.351562 40.570312 306.207031 L 40.710938 292.230469 C 40.890625 273.9375 42.976562 257.519531 44.972656 241.824219 C 46.367188 230.84375 47.71875 220.214844 48.34375 209.554688 C 49.183594 195.265625 50.957031 184.855469 52.890625 173.519531 C 54.457031 164.332031 56.128906 154.535156 57.496094 141.519531 C 60.054688 117.226562 72.078125 86.132812 75.839844 76.847656 Z M 75.839844 76.847656 " fill-opacity="1" fill-rule="nonzero"/><path fill="#fefefe" d="M 189.382812 97.121094 L 189.382812 2.410156 C 206.382812 2.246094 225.304688 3.515625 243.261719 7.820312 C 244.433594 9.003906 250.511719 15.476562 250.871094 22.972656 C 251.058594 26.800781 251.5625 30.164062 252.210938 33.046875 C 253.066406 36.851562 254.183594 39.839844 255.160156 41.96875 C 256.609375 45.136719 257.132812 52.101562 257.214844 53.390625 C 249.914062 72.394531 235.132812 85.207031 217.746094 91.824219 C 208.769531 95.242188 199.085938 97.007812 189.382812 97.121094 Z M 189.382812 97.121094 " fill-opacity="1" fill-rule="nonzero"/></svg>