<svg xmlns="http://www.w3.org/2000/svg" xmlns:xlink="http://www.w3.org/1999/xlink" width="512" zoomAndPan="magnify" viewBox="0 0 384 383.999986" height="512" preserveAspectRatio="xMidYMid meet" version="1.0"><defs><clipPath id="b38b13cc1d"><path d="M 133 81 L 384 81 L 384 332.652344 L 133 332.652344 Z M 133 81 " clip-rule="nonzero"/></clipPath></defs><g clip-path="url(#b38b13cc1d)"><path fill="#bb1125" d="M 383.820312 332.59375 L 151.445312 110.957031 C 150.691406 110.203125 155.964844 115.480469 148.992188 108.507812 C 148.429688 107.941406 147.863281 107.378906 147.296875 106.8125 C 148.617188 106.058594 149.746094 105.304688 151.066406 104.550781 C 151.445312 104.925781 151.632812 105.117188 152.007812 105.492188 C 159.734375 113.21875 167.085938 118.496094 168.40625 117.175781 C 169.726562 115.859375 164.449219 108.507812 156.71875 100.78125 C 155.589844 99.648438 154.460938 98.519531 153.328125 97.390625 L 153.328125 96.445312 L 152.199219 96.445312 C 146.355469 91.167969 141.453125 87.964844 140.324219 89.097656 C 139.570312 89.851562 141.265625 93.242188 144.847656 97.578125 C 143.527344 98.332031 142.398438 99.085938 141.078125 99.839844 C 134.292969 91.359375 131.65625 84.949219 133.917969 82.6875 C 136.933594 79.671875 147.109375 85.328125 159.734375 97.765625 C 166.710938 104.738281 161.433594 99.460938 162.1875 100.214844 Z M 383.820312 332.59375 " fill-opacity="1" fill-rule="evenodd"/></g><path fill="#bb1125" d="M -11.957031 105.492188 C -12.898438 104.925781 -13.277344 103.796875 -12.898438 102.855469 C -12.332031 101.910156 -11.203125 101.535156 -10.261719 101.910156 C -10.261719 101.910156 11.414062 112.84375 33.839844 118.683594 C 34.21875 118.121094 34.59375 117.367188 34.972656 116.800781 C 38.363281 111.902344 42.886719 107.378906 48.164062 103.796875 C 53.253906 100.214844 59.09375 97.578125 64.371094 96.257812 C 72.851562 94.375 80.390625 96.070312 83.972656 103.230469 C 84.539062 104.363281 84.914062 105.679688 85.101562 107 C 85.480469 109.828125 84.539062 113.03125 82.652344 115.859375 C 80.769531 118.683594 77.941406 121.136719 74.171875 123.019531 C 71.15625 124.527344 67.574219 125.660156 63.242188 126.035156 C 55.136719 126.789062 45.527344 125.46875 35.914062 123.207031 C 33.085938 129.617188 33.085938 136.210938 37.988281 142.054688 C 42.699219 147.332031 52.875 149.21875 70.78125 142.996094 C 85.855469 137.910156 106.023438 127.167969 132.410156 108.507812 C 138.816406 103.984375 146.542969 99.085938 155.402344 94.183594 L 155.964844 97.199219 L 156.15625 98.332031 C 147.863281 103.042969 140.699219 107.566406 134.671875 111.710938 C 107.90625 130.558594 87.554688 141.488281 72.097656 146.765625 C 52.308594 153.550781 40.625 151.101562 34.972656 144.503906 C 28.941406 137.53125 28.753906 129.617188 31.957031 122.078125 C 9.339844 116.046875 -11.957031 105.304688 -11.957031 105.117188 Z M 158.417969 92.867188 C 192.339844 74.394531 240.589844 55.550781 281.671875 52.535156 C 296.375 51.402344 310.320312 52.535156 322.382812 56.304688 C 334.632812 60.261719 344.808594 67.046875 352.160156 77.410156 C 358.757812 86.835938 363.089844 99.085938 364.222656 115.105469 C 364.222656 116.234375 363.46875 117.175781 362.335938 117.175781 C 361.207031 117.175781 360.265625 116.421875 360.265625 115.292969 C 359.132812 100.214844 355.175781 88.53125 348.957031 79.671875 C 342.171875 70.0625 332.558594 63.652344 321.25 60.074219 C 309.753906 56.304688 296.375 55.359375 282.050781 56.492188 C 241.90625 59.320312 194.980469 77.601562 161.433594 95.691406 C 160.679688 94.9375 159.734375 93.996094 158.417969 92.867188 Z M 37.796875 119.816406 C 46.65625 121.890625 55.324219 123.019531 62.863281 122.265625 C 66.632812 121.890625 69.648438 120.945312 72.289062 119.628906 C 75.304688 118.121094 77.753906 116.046875 79.261719 113.785156 C 80.582031 111.710938 81.335938 109.449219 81.144531 107.378906 C 81.144531 106.625 80.769531 105.679688 80.390625 104.925781 C 77.753906 99.648438 71.910156 98.519531 65.125 100.027344 C 60.226562 101.15625 55.136719 103.609375 50.425781 106.8125 C 45.714844 110.203125 41.378906 114.351562 38.363281 118.875 L 37.988281 119.628906 Z M 37.796875 119.816406 " fill-opacity="1" fill-rule="nonzero"/></svg>